<svg xmlns="http://www.w3.org/2000/svg" viewBox="0 0 128 128" width="128" height="128">
  <defs>
    <linearGradient id="sky" x1="0%" y1="100%" x2="0%" y2="0%">
      <stop offset="0%" style="stop-color:#0a0f23;stop-opacity:1" />
      <stop offset="100%" style="stop-color:#1a2442;stop-opacity:1" />
    </linearGradient>
    <linearGradient id="aurora1" x1="0%" y1="0%" x2="100%" y2="0%">
      <stop offset="0%" style="stop-color:#00ff00;stop-opacity:0" />
      <stop offset="50%" style="stop-color:#00ff00;stop-opacity:0.5" />
      <stop offset="100%" style="stop-color:#00ff00;stop-opacity:0" />
    </linearGradient>
    <linearGradient id="aurora2" x1="0%" y1="0%" x2="100%" y2="0%">
      <stop offset="0%" style="stop-color:#ff00ff;stop-opacity:0" />
      <stop offset="50%" style="stop-color:#ff00ff;stop-opacity:0.5" />
      <stop offset="100%" style="stop-color:#ff00ff;stop-opacity:0" />
    </linearGradient>
  </defs>
  
  <!-- Night sky background -->
  <rect width="128" height="128" fill="url(#sky)" />
  
  <!-- Stars -->
  <g fill="#ffffff">
    <circle cx="20" cy="30" r="1" />
    <circle cx="100" cy="20" r="1.5" />
    <circle cx="80" cy="50" r="1" />
    <circle cx="40" cy="70" r="1" />
    <circle cx="110" cy="80" r="1" />
    <circle cx="60" cy="15" r="1" />
  </g>
  
  <!-- Aurora waves -->
  <path d="M0 40 Q 64 20, 128 40 T 256 40" fill="none" stroke="url(#aurora1)" stroke-width="20" opacity="0.6">
    <animateTransform attributeName="transform" type="translate" from="-128 0" to="0 0" dur="3s" repeatCount="indefinite" />
  </path>
  <path d="M0 60 Q 64 80, 128 60 T 256 60" fill="none" stroke="url(#aurora2)" stroke-width="20" opacity="0.6">
    <animateTransform attributeName="transform" type="translate" from="0 0" to="-128 0" dur="3s" repeatCount="indefinite" />
  </path>
  
  <!-- Stylized clock hand -->
  <line x1="64" y1="64" x2="64" y2="32" stroke="#ffffff" stroke-width="2" stroke-linecap="round">
    <animateTransform attributeName="transform" type="rotate" from="0 64 64" to="360 64 64" dur="12s" repeatCount="indefinite" />
  </line>
  
  <!-- Quick link dots -->
  <circle cx="64" cy="100" r="4" fill="#ffffff" />
  <circle cx="48" cy="108" r="3" fill="#ffffff" opacity="0.7" />
  <circle cx="80" cy="108" r="3" fill="#ffffff" opacity="0.7" />
</svg>
